<?xml version="1.0" encoding="UTF-8" standalone="no"?>
<!-- Created with Inkscape (http://www.inkscape.org/) -->

<svg
   xmlns:dc="http://purl.org/dc/elements/1.1/"
   xmlns:cc="http://creativecommons.org/ns#"
   xmlns:rdf="http://www.w3.org/1999/02/22-rdf-syntax-ns#"
   xmlns:svg="http://www.w3.org/2000/svg"
   xmlns="http://www.w3.org/2000/svg"
   xmlns:sodipodi="http://sodipodi.sourceforge.net/DTD/sodipodi-0.dtd"
   xmlns:inkscape="http://www.inkscape.org/namespaces/inkscape"
   width="774.54047"
   height="545.49896"
   id="svg6804"
   version="1.1"
   inkscape:version="0.48.4 r9939"
   sodipodi:docname="var43.svg">
  <defs
     id="defs6806" />
  <sodipodi:namedview
     id="base"
     pagecolor="#ffffff"
     bordercolor="#666666"
     borderopacity="1.0"
     inkscape:pageopacity="0.0"
     inkscape:pageshadow="2"
     inkscape:zoom="1.3788713"
     inkscape:cx="287.3383"
     inkscape:cy="352.05074"
     inkscape:document-units="px"
     inkscape:current-layer="layer2"
     showgrid="false"
     fit-margin-top="0"
     fit-margin-left="0"
     fit-margin-right="0"
     fit-margin-bottom="0"
     inkscape:window-width="1855"
     inkscape:window-height="1056"
     inkscape:window-x="65"
     inkscape:window-y="24"
     inkscape:window-maximized="1"
     units="mm"
     inkscape:snap-bbox="true"
     inkscape:bbox-paths="true"
     inkscape:bbox-nodes="true"
     inkscape:snap-bbox-edge-midpoints="true"
     inkscape:snap-bbox-midpoints="true"
     inkscape:snap-page="true"
     inkscape:snap-center="true"
     inkscape:snap-object-midpoints="true"
     showguides="true"
     inkscape:guide-bbox="true"
     inkscape:object-paths="true"
     inkscape:object-nodes="true"
     inkscape:snap-smooth-nodes="true"
     inkscape:snap-midpoints="true"
     inkscape:snap-global="true">
    <sodipodi:guide
       orientation="1,0"
       position="387.03054,499.77437"
       id="guide4311" />
  </sodipodi:namedview>
  <metadata
     id="metadata6809">
    <rdf:RDF>
      <cc:Work
         rdf:about="">
        <dc:format>image/svg+xml</dc:format>
        <dc:type
           rdf:resource="http://purl.org/dc/dcmitype/StillImage" />
        <dc:title></dc:title>
      </cc:Work>
    </rdf:RDF>
  </metadata>
  <g
     inkscape:label="Layer 1"
     inkscape:groupmode="layer"
     id="layer1"
     transform="translate(117.9412,248.06927)"
     style="display:inline">
    <path
       style="fill:none;stroke:#000000;stroke-width:0.26899999;stroke-linecap:butt;stroke-linejoin:miter;stroke-miterlimit:4;stroke-opacity:1;stroke-dasharray:none;display:inline"
       d="m 387.03054,405.62983 c 65.7257,75.11593 198.28983,158.28182 266.84446,135.96392 66.1549,-23.21162 82.37656,-177.94997 93.78125,-247.125 C 762.6817,203.33209 791.34191,46.21186 760.375,27.625 730.64001,9.7775528 659.51806,-0.42973922 587.25,0.09375 488.21599,0.81112411 400.5238,63.159525 387.03054,63.159525 373.95959,63.159525 280.57636,-0.28098268 179.0625,0.09375 109.60565,0.35014604 42.571198,10.438569 13.9375,27.625 c -30.96691,18.58686 -2.275451,175.7071 12.75,266.84375 11.404692,69.17503 27.626346,223.91338 93.78125,247.125 68.55463,22.3179 200.83609,-60.84799 266.56179,-135.96392"
       transform="translate(-117.9412,-248.06927)"
       id="path6466-9"
       inkscape:connector-curvature="0"
       sodipodi:nodetypes="ccssscssscc" />
    <rect
       style="fill:none;stroke:#000000;stroke-width:0.27019578;stroke-miterlimit:4;stroke-opacity:1;stroke-dasharray:none;display:inline"
       id="rect4635-5-0-3-3"
       width="54.651066"
       height="44.021141"
       x="-5.0523367"
       y="-170.55832"
       transform="matrix(0.99229371,0.12390803,-0.12390803,0.99229371,0,0)" />
    <rect
       style="fill:none;stroke:#000000;stroke-width:0.27019578;stroke-miterlimit:4;stroke-opacity:1;stroke-dasharray:none;display:inline"
       id="rect4635-5-0-3-6-15"
       width="54.651066"
       height="44.021141"
       x="-153.319"
       y="20.147533"
       transform="matrix(0.152216,0.98834725,-0.98834725,0.152216,0,0)" />
    <rect
       style="fill:none;stroke:#000000;stroke-width:0.27019578;stroke-miterlimit:4;stroke-opacity:1;stroke-dasharray:none;display:inline"
       id="rect4635-5-0-3-6-2-3"
       width="54.651066"
       height="44.021141"
       x="-232.56625"
       y="-44.283787"
       transform="matrix(-0.12390803,0.99229371,-0.99229371,-0.12390803,0,0)" />
    <rect
       style="fill:none;stroke:#000000;stroke-width:0.27019578;stroke-miterlimit:4;stroke-opacity:1;stroke-dasharray:none;display:inline"
       id="rect4635-5-0-3-6-2-0-40"
       width="54.651066"
       height="44.021141"
       x="-181.76912"
       y="-103.44296"
       transform="matrix(-0.24584571,0.96930897,-0.96930897,-0.24584571,0,0)" />
    <rect
       style="fill:none;stroke:#000000;stroke-width:0.27019578;stroke-miterlimit:4;stroke-opacity:1;stroke-dasharray:none;display:inline"
       id="rect4635-5-0-3-2-3"
       width="54.651066"
       height="44.021141"
       x="54.106934"
       y="-233.14711"
       transform="matrix(0.96930897,0.24584571,-0.24584571,0.96930897,0,0)" />
    <rect
       style="fill:none;stroke:#000000;stroke-width:0.27019578;stroke-miterlimit:4;stroke-opacity:1;stroke-dasharray:none;display:inline"
       id="rect4635-5-0-3-2-8-1"
       width="54.651066"
       height="44.021141"
       x="112.89402"
       y="-191.95863"
       transform="matrix(0.9267409,0.37570109,-0.37570109,0.9267409,0,0)" />
    <rect
       style="fill:none;stroke:#000000;stroke-width:0.27019578;stroke-miterlimit:4;stroke-opacity:1;stroke-dasharray:none;display:inline"
       id="rect4635-5-0-3-6-2-0-4-7"
       width="54.651066"
       height="44.021141"
       x="-253.96651"
       y="-162.23007"
       transform="matrix(-0.37570109,0.9267409,-0.9267409,-0.37570109,0,0)" />
    <rect
       style="fill:none;stroke:#000000;stroke-width:0.27019578;stroke-miterlimit:4;stroke-opacity:1;stroke-dasharray:none;display:inline"
       id="rect4635-5-0-3-6-1-9"
       width="54.651066"
       height="44.021141"
       x="-119.31473"
       y="-44.283787"
       transform="matrix(-0.12390803,0.99229371,-0.99229371,-0.12390803,0,0)" />
    <rect
       style="fill:none;stroke:#000000;stroke-width:0.27019578;stroke-miterlimit:4;stroke-opacity:1;stroke-dasharray:none;display:inline"
       id="rect4635-5-0-3-6-2-0-8-03"
       width="54.651066"
       height="44.021141"
       x="-68.517639"
       y="-103.44296"
       transform="matrix(-0.24584571,0.96930897,-0.96930897,-0.24584571,0,0)" />
    <rect
       style="fill:none;stroke:#000000;stroke-width:0.27019578;stroke-miterlimit:4;stroke-opacity:1;stroke-dasharray:none;display:inline"
       id="rect4635-5-0-3-2-8-3-5"
       width="54.651066"
       height="44.021141"
       x="54.106934"
       y="-119.89574"
       transform="matrix(0.96930897,0.24584571,-0.24584571,0.96930897,0,0)" />
    <rect
       style="fill:none;stroke:#000000;stroke-width:0.27019578;stroke-miterlimit:4;stroke-opacity:1;stroke-dasharray:none;display:inline"
       id="rect4635-5-0-3-2-8-3-7-2"
       width="54.651066"
       height="44.021141"
       x="-69.483643"
       y="-91.445541"
       transform="matrix(0.98834725,-0.152216,0.152216,0.98834725,0,0)" />
    <rect
       style="fill:none;stroke:#000000;stroke-width:0.27019578;stroke-miterlimit:4;stroke-opacity:1;stroke-dasharray:none;display:inline"
       id="rect4635-5-0-3-2-8-3-7-5-9"
       width="54.651066"
       height="44.021141"
       x="112.89402"
       y="-78.7071"
       transform="matrix(0.9267409,0.37570109,-0.37570109,0.9267409,0,0)" />
    <rect
       style="fill:none;stroke:#000000;stroke-width:0.27019578;stroke-miterlimit:4;stroke-opacity:1;stroke-dasharray:none;display:inline"
       id="rect4635-5-0-3-2-8-3-7-5-8-12"
       width="54.651066"
       height="44.021141"
       x="-5.0523367"
       y="-57.306828"
       transform="matrix(0.99229371,0.12390803,-0.12390803,0.99229371,0,0)" />
    <rect
       style="fill:none;stroke:#000000;stroke-width:0.27019578;stroke-miterlimit:4;stroke-opacity:1;stroke-dasharray:none;display:inline"
       id="rect4635-5-0-3-2-8-3-7-5-8-1-7-1"
       width="54.651066"
       height="44.021141"
       x="54.106934"
       y="-6.6442366"
       transform="matrix(0.96930897,0.24584571,-0.24584571,0.96930897,0,0)" />
    <rect
       style="fill:none;stroke:#000000;stroke-width:0.27019578;stroke-miterlimit:4;stroke-opacity:1;stroke-dasharray:none;display:inline"
       id="rect4635-5-0-3-2-8-3-7-5-8-1-7-0-7"
       width="54.651066"
       height="44.021141"
       x="-56.54417"
       y="-215.17256"
       transform="matrix(-0.58391967,0.81181144,-0.81181144,-0.58391967,0,0)" />
    <rect
       style="fill:none;stroke:#000000;stroke-width:0.27019578;stroke-miterlimit:4;stroke-opacity:1;stroke-dasharray:none;display:inline"
       id="rect4635-5-0-3-6-2-0-8-4-01"
       width="54.651066"
       height="44.021141"
       x="-4.3859448"
       y="-42.552135"
       transform="matrix(-0.04589901,0.99894609,-0.99894609,-0.04589901,0,0)" />
    <rect
       style="fill:none;stroke:#000000;stroke-width:0.27019578;stroke-miterlimit:4;stroke-opacity:1;stroke-dasharray:none;display:inline"
       id="rect4635-5-0-3-6-2-0-8-4-8-5"
       width="54.651066"
       height="44.021141"
       x="-40.067448"
       y="20.147533"
       transform="matrix(0.152216,0.98834725,-0.98834725,0.152216,0,0)" />
    <rect
       style="fill:none;stroke:#000000;stroke-width:0.27019578;stroke-miterlimit:4;stroke-opacity:1;stroke-dasharray:none;display:inline"
       id="rect4635-5-0-3-6-2-0-8-4-8-8-2"
       width="54.651066"
       height="44.021141"
       x="-27.463665"
       y="-162.23007"
       transform="matrix(-0.37570109,0.9267409,-0.9267409,-0.37570109,0,0)" />
    <rect
       style="fill:none;stroke:#000000;stroke-width:0.27019578;stroke-miterlimit:4;stroke-opacity:1;stroke-dasharray:none;display:inline"
       id="rect4635-5-0-3-6-2-0-8-4-8-8-1-29"
       width="54.651066"
       height="44.021141"
       x="-140.71504"
       y="-162.23007"
       transform="matrix(-0.37570109,0.9267409,-0.9267409,-0.37570109,0,0)" />
    <rect
       style="fill:none;stroke:#000000;stroke-width:0.27019578;stroke-miterlimit:4;stroke-opacity:1;stroke-dasharray:none;display:inline"
       id="rect4635-5-0-3-6-2-0-8-4-8-8-3-0"
       width="54.651066"
       height="44.021141"
       x="-43.745747"
       y="-271.15106"
       transform="matrix(-0.58391967,0.81181144,-0.81181144,-0.58391967,0,0)" />
    <text
       xml:space="preserve"
       style="font-size:35.20134735px;font-style:normal;font-weight:normal;line-height:125%;letter-spacing:0px;word-spacing:0px;fill:#ff0000;fill-opacity:1;stroke:none;display:inline;font-family:Sans"
       x="237.23637"
       y="27.22135"
       id="text5927-8-5"
       sodipodi:linespacing="125%"
       transform="scale(0.88003371,1.1363201)"><tspan
         sodipodi:role="line"
         x="237.23637"
         y="27.22135"
         style="font-size:21.12080765px"
         id="tspan8280">варежки 4.2</tspan><tspan
         sodipodi:role="line"
         x="237.23637"
         y="53.62236"
         style="font-size:21.12080765px"
         id="tspan7209" /></text>
    <rect
       style="fill:none;stroke:#000000;stroke-width:0.27019578;stroke-miterlimit:4;stroke-opacity:1;stroke-dasharray:none;display:inline"
       id="rect4635-5-0-3-2-8-3-7-2-1"
       width="54.651066"
       height="44.021141"
       x="-69.483635"
       y="-204.69688"
       transform="matrix(0.98834725,-0.152216,0.152216,0.98834725,0,0)" />
    <rect
       style="fill:none;stroke:#000000;stroke-width:0.27019578;stroke-miterlimit:4;stroke-opacity:1;stroke-dasharray:none;display:inline"
       id="rect4635-5-0-3-2-8-3-7-2-8"
       width="54.651066"
       height="44.021141"
       x="-69.483635"
       y="21.805922"
       transform="matrix(0.98834725,-0.152216,0.152216,0.98834725,0,0)" />
    <rect
       style="fill:none;stroke:#000000;stroke-width:0.27019578;stroke-miterlimit:4;stroke-opacity:1;stroke-dasharray:none;display:inline"
       id="rect4635-5-0-3-3-0"
       width="54.651066"
       height="44.021141"
       x="-539.3515"
       y="-103.8402"
       transform="matrix(-0.99229371,0.12390803,0.12390803,0.99229371,0,0)" />
    <rect
       style="fill:none;stroke:#000000;stroke-width:0.27019578;stroke-miterlimit:4;stroke-opacity:1;stroke-dasharray:none;display:inline"
       id="rect4635-5-0-3-6-15-6"
       width="54.651066"
       height="44.021141"
       x="-235.27951"
       y="552.32178"
       transform="matrix(-0.152216,0.98834725,0.98834725,0.152216,0,0)" />
    <rect
       style="fill:none;stroke:#000000;stroke-width:0.27019578;stroke-miterlimit:4;stroke-opacity:1;stroke-dasharray:none;display:inline"
       id="rect4635-5-0-3-6-2-3-3"
       width="54.651066"
       height="44.021141"
       x="-165.84813"
       y="490.01541"
       transform="matrix(0.12390803,0.99229371,0.99229371,-0.12390803,0,0)" />
    <rect
       style="fill:none;stroke:#000000;stroke-width:0.27019578;stroke-miterlimit:4;stroke-opacity:1;stroke-dasharray:none;display:inline"
       id="rect4635-5-0-3-6-2-0-40-4"
       width="54.651066"
       height="44.021141"
       x="-49.393829"
       y="418.48016"
       transform="matrix(0.24584571,0.96930897,0.96930897,-0.24584571,0,0)" />
    <rect
       style="fill:none;stroke:#000000;stroke-width:0.27019578;stroke-miterlimit:4;stroke-opacity:1;stroke-dasharray:none;display:inline"
       id="rect4635-5-0-3-2-3-6"
       width="54.651066"
       height="44.021141"
       x="-467.81619"
       y="-100.77182"
       transform="matrix(-0.96930897,0.24584571,0.24584571,0.96930897,0,0)" />
    <rect
       style="fill:none;stroke:#000000;stroke-width:0.27019578;stroke-miterlimit:4;stroke-opacity:1;stroke-dasharray:none;display:inline"
       id="rect4635-5-0-3-2-8-1-8"
       width="54.651066"
       height="44.021141"
       x="-386.10837"
       y="10.337092"
       transform="matrix(-0.9267409,0.37570109,0.37570109,0.9267409,0,0)" />
    <rect
       style="fill:none;stroke:#000000;stroke-width:0.27019578;stroke-miterlimit:4;stroke-opacity:1;stroke-dasharray:none;display:inline"
       id="rect4635-5-0-3-6-2-0-4-7-0"
       width="54.651066"
       height="44.021141"
       x="-51.67078"
       y="336.77231"
       transform="matrix(0.37570109,0.9267409,0.9267409,-0.37570109,0,0)" />
    <rect
       style="fill:none;stroke:#000000;stroke-width:0.27019578;stroke-miterlimit:4;stroke-opacity:1;stroke-dasharray:none;display:inline"
       id="rect4635-5-0-3-6-1-9-7"
       width="54.651066"
       height="44.021141"
       x="-52.596607"
       y="490.01541"
       transform="matrix(0.12390803,0.99229371,0.99229371,-0.12390803,0,0)" />
    <rect
       style="fill:none;stroke:#000000;stroke-width:0.27019578;stroke-miterlimit:4;stroke-opacity:1;stroke-dasharray:none;display:inline"
       id="rect4635-5-0-3-6-2-0-8-03-3"
       width="54.651066"
       height="44.021141"
       x="63.857635"
       y="418.48016"
       transform="matrix(0.24584571,0.96930897,0.96930897,-0.24584571,0,0)" />
    <rect
       style="fill:none;stroke:#000000;stroke-width:0.27019578;stroke-miterlimit:4;stroke-opacity:1;stroke-dasharray:none;display:inline"
       id="rect4635-5-0-3-2-8-3-5-0"
       width="54.651066"
       height="44.021141"
       x="-467.81619"
       y="12.479552"
       transform="matrix(-0.96930897,0.24584571,0.24584571,0.96930897,0,0)" />
    <rect
       style="fill:none;stroke:#000000;stroke-width:0.27019578;stroke-miterlimit:4;stroke-opacity:1;stroke-dasharray:none;display:inline"
       id="rect4635-5-0-3-2-8-3-7-2-0"
       width="54.651066"
       height="44.021141"
       x="-601.6579"
       y="-173.40604"
       transform="matrix(-0.98834725,-0.152216,-0.152216,0.98834725,0,0)" />
    <rect
       style="fill:none;stroke:#000000;stroke-width:0.27019578;stroke-miterlimit:4;stroke-opacity:1;stroke-dasharray:none;display:inline"
       id="rect4635-5-0-3-2-8-3-7-5-9-1"
       width="54.651066"
       height="44.021141"
       x="-386.10837"
       y="123.58865"
       transform="matrix(-0.9267409,0.37570109,0.37570109,0.9267409,0,0)" />
    <rect
       style="fill:none;stroke:#000000;stroke-width:0.27019578;stroke-miterlimit:4;stroke-opacity:1;stroke-dasharray:none;display:inline"
       id="rect4635-5-0-3-2-8-3-7-5-8-12-7"
       width="54.651066"
       height="44.021141"
       x="-539.3515"
       y="9.4112968"
       transform="matrix(-0.99229371,0.12390803,0.12390803,0.99229371,0,0)" />
    <rect
       style="fill:none;stroke:#000000;stroke-width:0.27019578;stroke-miterlimit:4;stroke-opacity:1;stroke-dasharray:none;display:inline"
       id="rect4635-5-0-3-2-8-3-7-5-8-1-7-1-5"
       width="54.651066"
       height="44.021141"
       x="-467.81619"
       y="125.73105"
       transform="matrix(-0.96930897,0.24584571,0.24584571,0.96930897,0,0)" />
    <rect
       style="fill:none;stroke:#000000;stroke-width:0.27019578;stroke-miterlimit:4;stroke-opacity:1;stroke-dasharray:none;display:inline"
       id="rect4635-5-0-3-2-8-3-7-5-8-1-7-0-7-9"
       width="54.651066"
       height="44.021141"
       x="257.86658"
       y="221.94623"
       transform="matrix(0.58391967,0.81181144,0.81181144,-0.58391967,0,0)" />
    <rect
       style="fill:none;stroke:#000000;stroke-width:0.27019578;stroke-miterlimit:4;stroke-opacity:1;stroke-dasharray:none;display:inline"
       id="rect4635-5-0-3-6-2-0-8-4-01-5"
       width="54.651066"
       height="44.021141"
       x="20.328308"
       y="495.32904"
       transform="matrix(0.04589901,0.99894609,0.99894609,-0.04589901,0,0)" />
    <rect
       style="fill:none;stroke:#000000;stroke-width:0.27019578;stroke-miterlimit:4;stroke-opacity:1;stroke-dasharray:none;display:inline"
       id="rect4635-5-0-3-6-2-0-8-4-8-5-0"
       width="54.651066"
       height="44.021141"
       x="-122.02796"
       y="552.32178"
       transform="matrix(-0.152216,0.98834725,0.98834725,0.152216,0,0)" />
    <rect
       style="fill:none;stroke:#000000;stroke-width:0.27019578;stroke-miterlimit:4;stroke-opacity:1;stroke-dasharray:none;display:inline"
       id="rect4635-5-0-3-6-2-0-8-4-8-8-2-7"
       width="54.651066"
       height="44.021141"
       x="174.83209"
       y="336.77231"
       transform="matrix(0.37570109,0.9267409,0.9267409,-0.37570109,0,0)" />
    <rect
       style="fill:none;stroke:#000000;stroke-width:0.27019578;stroke-miterlimit:4;stroke-opacity:1;stroke-dasharray:none;display:inline"
       id="rect4635-5-0-3-6-2-0-8-4-8-8-1-29-8"
       width="54.651066"
       height="44.021141"
       x="61.580685"
       y="336.77231"
       transform="matrix(0.37570109,0.9267409,0.9267409,-0.37570109,0,0)" />
    <rect
       style="fill:none;stroke:#000000;stroke-width:0.27019578;stroke-miterlimit:4;stroke-opacity:1;stroke-dasharray:none;display:inline"
       id="rect4635-5-0-3-6-2-0-8-4-8-8-3-0-5"
       width="54.651066"
       height="44.021141"
       x="270.66504"
       y="165.96771"
       transform="matrix(0.58391967,0.81181144,0.81181144,-0.58391967,0,0)" />
    <rect
       style="fill:none;stroke:#000000;stroke-width:0.27019578;stroke-miterlimit:4;stroke-opacity:1;stroke-dasharray:none;display:inline"
       id="rect4635-5-0-3-2-8-3-7-2-1-9"
       width="54.651066"
       height="44.021141"
       x="-601.65784"
       y="-286.65738"
       transform="matrix(-0.98834725,-0.152216,-0.152216,0.98834725,0,0)" />
    <rect
       style="fill:none;stroke:#000000;stroke-width:0.27019578;stroke-miterlimit:4;stroke-opacity:1;stroke-dasharray:none;display:inline"
       id="rect4635-5-0-3-2-8-3-7-2-8-9"
       width="54.651066"
       height="44.021141"
       x="-601.65784"
       y="-60.154579"
       transform="matrix(-0.98834725,-0.152216,-0.152216,0.98834725,0,0)" />
  </g>
  <g
     inkscape:groupmode="layer"
     id="layer2"
     inkscape:label="buttons"
     style="display:none"
     transform="translate(-68.5916,-147.9906)"
     sodipodi:insensitive="true">
    <path
       sodipodi:type="arc"
       style="fill:#ff0000;stroke:#000000;stroke-width:0.27000001;stroke-miterlimit:4;stroke-opacity:1;stroke-dasharray:none;display:inline"
       id="path3145"
       sodipodi:cx="146.13402"
       sodipodi:cy="627.04065"
       sodipodi:rx="46.77739"
       sodipodi:ry="46.77739"
       d="m 192.91141,627.04065 a 46.77739,46.77739 0 1 1 -93.554782,0 46.77739,46.77739 0 1 1 93.554782,0 z"
       transform="matrix(0.56640124,-0.00928116,0.00928116,0.56640125,227.94175,94.812175)" />
    <path
       sodipodi:type="arc"
       style="fill:#ff0000;stroke:#000000;stroke-width:0.27000001;stroke-miterlimit:4;stroke-opacity:1;stroke-dasharray:none;display:inline"
       id="path3145-8"
       sodipodi:cx="146.13402"
       sodipodi:cy="627.04065"
       sodipodi:rx="46.77739"
       sodipodi:ry="46.77739"
       d="m 192.91141,627.04065 a 46.77739,46.77739 0 1 1 -93.554782,0 46.77739,46.77739 0 1 1 93.554782,0 z"
       transform="matrix(0.56640124,-0.00928116,0.00928116,0.56640125,271.81506,131.3306)" />
    <path
       sodipodi:type="arc"
       style="fill:#ff0000;stroke:#000000;stroke-width:0.27000001;stroke-miterlimit:4;stroke-opacity:1;stroke-dasharray:none;display:inline"
       id="path3145-85"
       sodipodi:cx="146.13402"
       sodipodi:cy="627.04065"
       sodipodi:rx="46.77739"
       sodipodi:ry="46.77739"
       d="m 192.91141,627.04065 a 46.77739,46.77739 0 1 1 -93.554782,0 46.77739,46.77739 0 1 1 93.554782,0 z"
       transform="matrix(0.56640124,-0.00928116,0.00928116,0.56640125,309.78582,174.40747)" />
    <path
       sodipodi:type="arc"
       style="fill:#ff0000;stroke:#000000;stroke-width:0.27000001;stroke-miterlimit:4;stroke-opacity:1;stroke-dasharray:none;display:inline"
       id="path3145-6"
       sodipodi:cx="146.13402"
       sodipodi:cy="627.04065"
       sodipodi:rx="46.77739"
       sodipodi:ry="46.77739"
       d="m 192.91141,627.04065 a 46.77739,46.77739 0 1 1 -93.554782,0 46.77739,46.77739 0 1 1 93.554782,0 z"
       transform="matrix(0.56640124,-0.00928116,0.00928116,0.56640125,249.19076,42.397212)" />
    <path
       sodipodi:type="arc"
       style="fill:#ff0000;stroke:#000000;stroke-width:0.27000001;stroke-miterlimit:4;stroke-opacity:1;stroke-dasharray:none;display:inline"
       id="path3145-3"
       sodipodi:cx="146.13402"
       sodipodi:cy="627.04065"
       sodipodi:rx="46.77739"
       sodipodi:ry="46.77739"
       d="m 192.91141,627.04065 a 46.77739,46.77739 0 1 1 -93.554782,0 46.77739,46.77739 0 1 1 93.554782,0 z"
       transform="matrix(0.56640124,-0.00928116,0.00928116,0.56640125,270.49042,-10.142529)" />
    <path
       sodipodi:type="arc"
       style="fill:#ff0000;stroke:#000000;stroke-width:0.27000001;stroke-miterlimit:4;stroke-opacity:1;stroke-dasharray:none;display:inline"
       id="path3145-4"
       sodipodi:cx="146.13402"
       sodipodi:cy="627.04065"
       sodipodi:rx="46.77739"
       sodipodi:ry="46.77739"
       d="m 192.91141,627.04065 a 46.77739,46.77739 0 1 1 -93.554782,0 46.77739,46.77739 0 1 1 93.554782,0 z"
       transform="matrix(0.56640124,-0.00928116,0.00928116,0.56640125,291.73951,-62.557657)" />
    <path
       sodipodi:type="arc"
       style="fill:#ff0000;stroke:#000000;stroke-width:0.27000001;stroke-miterlimit:4;stroke-opacity:1;stroke-dasharray:none;display:inline"
       id="path3145-1"
       sodipodi:cx="146.13402"
       sodipodi:cy="627.04065"
       sodipodi:rx="46.77739"
       sodipodi:ry="46.77739"
       d="m 192.91141,627.04065 a 46.77739,46.77739 0 1 1 -93.554782,0 46.77739,46.77739 0 1 1 93.554782,0 z"
       transform="matrix(0.56640124,-0.00928116,0.00928116,0.56640125,313.03912,-115.09731)" />
    <path
       sodipodi:type="arc"
       style="fill:#ff0000;stroke:#000000;stroke-width:0.27000001;stroke-miterlimit:4;stroke-opacity:1;stroke-dasharray:none;display:inline"
       id="path3145-82"
       sodipodi:cx="146.13402"
       sodipodi:cy="627.04065"
       sodipodi:rx="46.77739"
       sodipodi:ry="46.77739"
       d="m 192.91141,627.04065 a 46.77739,46.77739 0 1 1 -93.554782,0 46.77739,46.77739 0 1 1 93.554782,0 z"
       transform="matrix(0.56640124,-0.00928116,0.00928116,0.56640125,228.78288,-142.37717)" />
    <path
       sodipodi:type="arc"
       style="fill:#ff0000;stroke:#000000;stroke-width:0.27000001;stroke-miterlimit:4;stroke-opacity:1;stroke-dasharray:none;display:inline"
       id="path3145-5"
       sodipodi:cx="146.13402"
       sodipodi:cy="627.04065"
       sodipodi:rx="46.77739"
       sodipodi:ry="46.77739"
       d="m 192.91141,627.04065 a 46.77739,46.77739 0 1 1 -93.554782,0 46.77739,46.77739 0 1 1 93.554782,0 z"
       transform="matrix(0.56640124,-0.00928116,0.00928116,0.56640125,214.84508,-87.424198)" />
    <path
       sodipodi:type="arc"
       style="fill:#ff0000;stroke:#000000;stroke-width:0.27000001;stroke-miterlimit:4;stroke-opacity:1;stroke-dasharray:none;display:inline"
       id="path3145-51"
       sodipodi:cx="146.13402"
       sodipodi:cy="627.04065"
       sodipodi:rx="46.77739"
       sodipodi:ry="46.77739"
       d="m 192.91141,627.04065 a 46.77739,46.77739 0 1 1 -93.554782,0 46.77739,46.77739 0 1 1 93.554782,0 z"
       transform="matrix(0.56640124,-0.00928116,0.00928116,0.56640125,200.94051,-32.601569)" />
    <path
       sodipodi:type="arc"
       style="fill:#ff0000;stroke:#000000;stroke-width:0.27000001;stroke-miterlimit:4;stroke-opacity:1;stroke-dasharray:none;display:inline"
       id="path3145-69"
       sodipodi:cx="146.13402"
       sodipodi:cy="627.04065"
       sodipodi:rx="46.77739"
       sodipodi:ry="46.77739"
       d="m 192.91141,627.04065 a 46.77739,46.77739 0 1 1 -93.554782,0 46.77739,46.77739 0 1 1 93.554782,0 z"
       transform="matrix(0.56640124,-0.00928116,0.00928116,0.56640125,187.00271,22.351469)" />
    <path
       sodipodi:type="arc"
       style="fill:#ff0000;stroke:#000000;stroke-width:0.27000001;stroke-miterlimit:4;stroke-opacity:1;stroke-dasharray:none;display:inline"
       id="path3145-33"
       sodipodi:cx="146.13402"
       sodipodi:cy="627.04065"
       sodipodi:rx="46.77739"
       sodipodi:ry="46.77739"
       d="m 192.91141,627.04065 a 46.77739,46.77739 0 1 1 -93.554782,0 46.77739,46.77739 0 1 1 93.554782,0 z"
       transform="matrix(0.56640124,-0.00928116,-0.00928116,-0.56640125,184.73745,787.48733)" />
    <path
       sodipodi:type="arc"
       style="fill:#ff0000;stroke:#000000;stroke-width:0.27000001;stroke-miterlimit:4;stroke-opacity:1;stroke-dasharray:none;display:inline"
       id="path3145-87"
       sodipodi:cx="146.13402"
       sodipodi:cy="627.04065"
       sodipodi:rx="46.77739"
       sodipodi:ry="46.77739"
       d="m 192.91141,627.04065 a 46.77739,46.77739 0 1 1 -93.554782,0 46.77739,46.77739 0 1 1 93.554782,0 z"
       transform="matrix(0.56640124,-0.00928116,0.00928116,0.56640125,117.40964,66.117801)" />
    <path
       sodipodi:type="arc"
       style="fill:#ff0000;stroke:#000000;stroke-width:0.27000001;stroke-miterlimit:4;stroke-opacity:1;stroke-dasharray:none;display:inline"
       id="path3145-18"
       sodipodi:cx="146.13402"
       sodipodi:cy="627.04065"
       sodipodi:rx="46.77739"
       sodipodi:ry="46.77739"
       d="m 192.91141,627.04065 a 46.77739,46.77739 0 1 1 -93.554782,0 46.77739,46.77739 0 1 1 93.554782,0 z"
       transform="matrix(0.56640124,-0.00928116,0.00928116,0.56640125,124.41769,9.9951324)" />
    <path
       sodipodi:type="arc"
       style="fill:#ff0000;stroke:#000000;stroke-width:0.27000001;stroke-miterlimit:4;stroke-opacity:1;stroke-dasharray:none;display:inline"
       id="path3145-30"
       sodipodi:cx="146.13402"
       sodipodi:cy="627.04065"
       sodipodi:rx="46.77739"
       sodipodi:ry="46.77739"
       d="m 192.91141,627.04065 a 46.77739,46.77739 0 1 1 -93.554782,0 46.77739,46.77739 0 1 1 93.554782,0 z"
       transform="matrix(0.56640124,-0.00928116,0.00928116,0.56640125,131.44242,-46.260945)" />
    <path
       sodipodi:type="arc"
       style="fill:#ff0000;stroke:#000000;stroke-width:0.27000001;stroke-miterlimit:4;stroke-opacity:1;stroke-dasharray:none;display:inline"
       id="path3145-67"
       sodipodi:cx="146.13402"
       sodipodi:cy="627.04065"
       sodipodi:rx="46.77739"
       sodipodi:ry="46.77739"
       d="m 192.91141,627.04065 a 46.77739,46.77739 0 1 1 -93.554782,0 46.77739,46.77739 0 1 1 93.554782,0 z"
       transform="matrix(0.56640124,-0.00928116,0.00928116,0.56640125,138.45044,-102.38358)" />
    <path
       sodipodi:type="arc"
       style="fill:#ff0000;stroke:#000000;stroke-width:0.27000001;stroke-miterlimit:4;stroke-opacity:1;stroke-dasharray:none;display:inline"
       id="path3145-7"
       sodipodi:cx="146.13402"
       sodipodi:cy="627.04065"
       sodipodi:rx="46.77739"
       sodipodi:ry="46.77739"
       d="m 192.91141,627.04065 a 46.77739,46.77739 0 1 1 -93.554782,0 46.77739,46.77739 0 1 1 93.554782,0 z"
       transform="matrix(0.56640124,-0.00928116,0.00928116,0.56640125,145.47517,-158.63963)" />
    <path
       sodipodi:type="arc"
       style="fill:#ff0000;stroke:#000000;stroke-width:0.27000001;stroke-miterlimit:4;stroke-opacity:1;stroke-dasharray:none;display:inline"
       id="path3145-9"
       sodipodi:cx="146.13402"
       sodipodi:cy="627.04065"
       sodipodi:rx="46.77739"
       sodipodi:ry="46.77739"
       d="m 192.91141,627.04065 a 46.77739,46.77739 0 1 1 -93.554782,0 46.77739,46.77739 0 1 1 93.554782,0 z"
       transform="matrix(0.5630152,-0.06253314,0.06253314,0.56301521,-4.4283279,-121.97572)" />
    <path
       sodipodi:type="arc"
       style="fill:#ff0000;stroke:#000000;stroke-width:0.27000001;stroke-miterlimit:4;stroke-opacity:1;stroke-dasharray:none;display:inline"
       id="path3145-699"
       sodipodi:cx="146.13402"
       sodipodi:cy="627.04065"
       sodipodi:rx="46.77739"
       sodipodi:ry="46.77739"
       d="m 192.91141,627.04065 a 46.77739,46.77739 0 1 1 -93.554782,0 46.77739,46.77739 0 1 1 93.554782,0 z"
       transform="matrix(0.5630152,-0.06253314,0.06253314,0.56301521,4.2012537,-65.943449)" />
    <path
       sodipodi:type="arc"
       style="fill:#ff0000;stroke:#000000;stroke-width:0.27000001;stroke-miterlimit:4;stroke-opacity:1;stroke-dasharray:none;display:inline"
       id="path3145-98"
       sodipodi:cx="146.13402"
       sodipodi:cy="627.04065"
       sodipodi:rx="46.77739"
       sodipodi:ry="46.77739"
       d="m 192.91141,627.04065 a 46.77739,46.77739 0 1 1 -93.554782,0 46.77739,46.77739 0 1 1 93.554782,0 z"
       transform="matrix(0.5630152,-0.06253314,0.06253314,0.56301521,12.810339,-10.044053)" />
    <path
       sodipodi:type="arc"
       style="fill:#ff0000;stroke:#000000;stroke-width:0.27000001;stroke-miterlimit:4;stroke-opacity:1;stroke-dasharray:none;display:inline"
       id="path3145-84"
       sodipodi:cx="146.13402"
       sodipodi:cy="627.04065"
       sodipodi:rx="46.77739"
       sodipodi:ry="46.77739"
       d="m 192.91141,627.04065 a 46.77739,46.77739 0 1 1 -93.554782,0 46.77739,46.77739 0 1 1 93.554782,0 z"
       transform="matrix(0.5630152,-0.06253314,0.06253314,0.56301521,21.43994,45.988329)" />
    <path
       sodipodi:type="arc"
       style="fill:#ff0000;stroke:#000000;stroke-width:0.27000001;stroke-miterlimit:4;stroke-opacity:1;stroke-dasharray:none;display:inline"
       id="path3145-63"
       sodipodi:cx="146.13402"
       sodipodi:cy="627.04065"
       sodipodi:rx="46.77739"
       sodipodi:ry="46.77739"
       d="m 192.91141,627.04065 a 46.77739,46.77739 0 1 1 -93.554782,0 46.77739,46.77739 0 1 1 93.554782,0 z"
       transform="matrix(0.5630152,-0.06253314,0.06253314,0.56301521,30.049025,101.88771)" />
    <path
       sodipodi:type="arc"
       style="fill:#ff0000;stroke:#000000;stroke-width:0.27000001;stroke-miterlimit:4;stroke-opacity:1;stroke-dasharray:none;display:inline"
       id="path3145-183"
       sodipodi:cx="146.13402"
       sodipodi:cy="627.04065"
       sodipodi:rx="46.77739"
       sodipodi:ry="46.77739"
       d="m 192.91141,627.04065 a 46.77739,46.77739 0 1 1 -93.554782,0 46.77739,46.77739 0 1 1 93.554782,0 z"
       transform="matrix(-0.56640124,-0.00928116,-0.00928116,0.56640125,683.57252,94.812171)" />
    <path
       sodipodi:type="arc"
       style="fill:#ff0000;stroke:#000000;stroke-width:0.27000001;stroke-miterlimit:4;stroke-opacity:1;stroke-dasharray:none;display:inline"
       id="path3145-8-5"
       sodipodi:cx="146.13402"
       sodipodi:cy="627.04065"
       sodipodi:rx="46.77739"
       sodipodi:ry="46.77739"
       d="m 192.91141,627.04065 a 46.77739,46.77739 0 1 1 -93.554782,0 46.77739,46.77739 0 1 1 93.554782,0 z"
       transform="matrix(-0.56640124,-0.00928116,-0.00928116,0.56640125,639.69921,131.33059)" />
    <path
       sodipodi:type="arc"
       style="fill:#ff0000;stroke:#000000;stroke-width:0.27000001;stroke-miterlimit:4;stroke-opacity:1;stroke-dasharray:none;display:inline"
       id="path3145-85-5"
       sodipodi:cx="146.13402"
       sodipodi:cy="627.04065"
       sodipodi:rx="46.77739"
       sodipodi:ry="46.77739"
       d="m 192.91141,627.04065 a 46.77739,46.77739 0 1 1 -93.554782,0 46.77739,46.77739 0 1 1 93.554782,0 z"
       transform="matrix(-0.56640124,-0.00928116,-0.00928116,0.56640125,601.72845,174.40746)" />
    <path
       sodipodi:type="arc"
       style="fill:#ff0000;stroke:#000000;stroke-width:0.27000001;stroke-miterlimit:4;stroke-opacity:1;stroke-dasharray:none;display:inline"
       id="path3145-6-5"
       sodipodi:cx="146.13402"
       sodipodi:cy="627.04065"
       sodipodi:rx="46.77739"
       sodipodi:ry="46.77739"
       d="m 192.91141,627.04065 a 46.77739,46.77739 0 1 1 -93.554782,0 46.77739,46.77739 0 1 1 93.554782,0 z"
       transform="matrix(-0.56640124,-0.00928116,-0.00928116,0.56640125,662.32351,42.397201)" />
    <path
       sodipodi:type="arc"
       style="fill:#ff0000;stroke:#000000;stroke-width:0.27000001;stroke-miterlimit:4;stroke-opacity:1;stroke-dasharray:none;display:inline"
       id="path3145-3-3"
       sodipodi:cx="146.13402"
       sodipodi:cy="627.04065"
       sodipodi:rx="46.77739"
       sodipodi:ry="46.77739"
       d="m 192.91141,627.04065 a 46.77739,46.77739 0 1 1 -93.554782,0 46.77739,46.77739 0 1 1 93.554782,0 z"
       transform="matrix(-0.56640124,-0.00928116,-0.00928116,0.56640125,641.02385,-10.142539)" />
    <path
       sodipodi:type="arc"
       style="fill:#ff0000;stroke:#000000;stroke-width:0.27000001;stroke-miterlimit:4;stroke-opacity:1;stroke-dasharray:none;display:inline"
       id="path3145-4-7"
       sodipodi:cx="146.13402"
       sodipodi:cy="627.04065"
       sodipodi:rx="46.77739"
       sodipodi:ry="46.77739"
       d="m 192.91141,627.04065 a 46.77739,46.77739 0 1 1 -93.554782,0 46.77739,46.77739 0 1 1 93.554782,0 z"
       transform="matrix(-0.56640124,-0.00928116,-0.00928116,0.56640125,619.77476,-62.557669)" />
    <path
       sodipodi:type="arc"
       style="fill:#ff0000;stroke:#000000;stroke-width:0.27000001;stroke-miterlimit:4;stroke-opacity:1;stroke-dasharray:none;display:inline"
       id="path3145-1-1"
       sodipodi:cx="146.13402"
       sodipodi:cy="627.04065"
       sodipodi:rx="46.77739"
       sodipodi:ry="46.77739"
       d="m 192.91141,627.04065 a 46.77739,46.77739 0 1 1 -93.554782,0 46.77739,46.77739 0 1 1 93.554782,0 z"
       transform="matrix(-0.56640124,-0.00928116,-0.00928116,0.56640125,598.47515,-115.09732)" />
    <path
       sodipodi:type="arc"
       style="fill:#ff0000;stroke:#000000;stroke-width:0.27000001;stroke-miterlimit:4;stroke-opacity:1;stroke-dasharray:none;display:inline"
       id="path3145-82-8"
       sodipodi:cx="146.13402"
       sodipodi:cy="627.04065"
       sodipodi:rx="46.77739"
       sodipodi:ry="46.77739"
       d="m 192.91141,627.04065 a 46.77739,46.77739 0 1 1 -93.554782,0 46.77739,46.77739 0 1 1 93.554782,0 z"
       transform="matrix(-0.56640124,-0.00928116,-0.00928116,0.56640125,682.73139,-142.37718)" />
    <path
       sodipodi:type="arc"
       style="fill:#ff0000;stroke:#000000;stroke-width:0.27000001;stroke-miterlimit:4;stroke-opacity:1;stroke-dasharray:none;display:inline"
       id="path3145-5-1"
       sodipodi:cx="146.13402"
       sodipodi:cy="627.04065"
       sodipodi:rx="46.77739"
       sodipodi:ry="46.77739"
       d="m 192.91141,627.04065 a 46.77739,46.77739 0 1 1 -93.554782,0 46.77739,46.77739 0 1 1 93.554782,0 z"
       transform="matrix(-0.56640124,-0.00928116,-0.00928116,0.56640125,696.66919,-87.424209)" />
    <path
       sodipodi:type="arc"
       style="fill:#ff0000;stroke:#000000;stroke-width:0.27000001;stroke-miterlimit:4;stroke-opacity:1;stroke-dasharray:none;display:inline"
       id="path3145-51-7"
       sodipodi:cx="146.13402"
       sodipodi:cy="627.04065"
       sodipodi:rx="46.77739"
       sodipodi:ry="46.77739"
       d="m 192.91141,627.04065 a 46.77739,46.77739 0 1 1 -93.554782,0 46.77739,46.77739 0 1 1 93.554782,0 z"
       transform="matrix(-0.56640124,-0.00928116,-0.00928116,0.56640125,710.57376,-32.601579)" />
    <path
       sodipodi:type="arc"
       style="fill:#ff0000;stroke:#000000;stroke-width:0.27000001;stroke-miterlimit:4;stroke-opacity:1;stroke-dasharray:none;display:inline"
       id="path3145-69-6"
       sodipodi:cx="146.13402"
       sodipodi:cy="627.04065"
       sodipodi:rx="46.77739"
       sodipodi:ry="46.77739"
       d="m 192.91141,627.04065 a 46.77739,46.77739 0 1 1 -93.554782,0 46.77739,46.77739 0 1 1 93.554782,0 z"
       transform="matrix(-0.56640124,-0.00928116,-0.00928116,0.56640125,724.51156,22.351461)" />
    <path
       sodipodi:type="arc"
       style="fill:#ff0000;stroke:#000000;stroke-width:0.27000001;stroke-miterlimit:4;stroke-opacity:1;stroke-dasharray:none;display:inline"
       id="path3145-33-3"
       sodipodi:cx="146.13402"
       sodipodi:cy="627.04065"
       sodipodi:rx="46.77739"
       sodipodi:ry="46.77739"
       d="m 192.91141,627.04065 a 46.77739,46.77739 0 1 1 -93.554782,0 46.77739,46.77739 0 1 1 93.554782,0 z"
       transform="matrix(-0.56640124,-0.00928116,0.00928116,-0.56640125,726.77682,787.48732)" />
    <path
       sodipodi:type="arc"
       style="fill:#ff0000;stroke:#000000;stroke-width:0.27000001;stroke-miterlimit:4;stroke-opacity:1;stroke-dasharray:none;display:inline"
       id="path3145-87-6"
       sodipodi:cx="146.13402"
       sodipodi:cy="627.04065"
       sodipodi:rx="46.77739"
       sodipodi:ry="46.77739"
       d="m 192.91141,627.04065 a 46.77739,46.77739 0 1 1 -93.554782,0 46.77739,46.77739 0 1 1 93.554782,0 z"
       transform="matrix(-0.56640124,-0.00928116,-0.00928116,0.56640125,794.10463,66.117791)" />
    <path
       sodipodi:type="arc"
       style="fill:#ff0000;stroke:#000000;stroke-width:0.27000001;stroke-miterlimit:4;stroke-opacity:1;stroke-dasharray:none;display:inline"
       id="path3145-18-1"
       sodipodi:cx="146.13402"
       sodipodi:cy="627.04065"
       sodipodi:rx="46.77739"
       sodipodi:ry="46.77739"
       d="m 192.91141,627.04065 a 46.77739,46.77739 0 1 1 -93.554782,0 46.77739,46.77739 0 1 1 93.554782,0 z"
       transform="matrix(-0.56640124,-0.00928116,-0.00928116,0.56640125,787.09658,9.9951214)" />
    <path
       sodipodi:type="arc"
       style="fill:#ff0000;stroke:#000000;stroke-width:0.27000001;stroke-miterlimit:4;stroke-opacity:1;stroke-dasharray:none;display:inline"
       id="path3145-30-3"
       sodipodi:cx="146.13402"
       sodipodi:cy="627.04065"
       sodipodi:rx="46.77739"
       sodipodi:ry="46.77739"
       d="m 192.91141,627.04065 a 46.77739,46.77739 0 1 1 -93.554782,0 46.77739,46.77739 0 1 1 93.554782,0 z"
       transform="matrix(-0.56640124,-0.00928116,-0.00928116,0.56640125,780.07185,-46.260949)" />
    <path
       sodipodi:type="arc"
       style="fill:#ff0000;stroke:#000000;stroke-width:0.27000001;stroke-miterlimit:4;stroke-opacity:1;stroke-dasharray:none;display:inline"
       id="path3145-67-7"
       sodipodi:cx="146.13402"
       sodipodi:cy="627.04065"
       sodipodi:rx="46.77739"
       sodipodi:ry="46.77739"
       d="m 192.91141,627.04065 a 46.77739,46.77739 0 1 1 -93.554782,0 46.77739,46.77739 0 1 1 93.554782,0 z"
       transform="matrix(-0.56640124,-0.00928116,-0.00928116,0.56640125,773.06383,-102.38359)" />
    <path
       sodipodi:type="arc"
       style="fill:#ff0000;stroke:#000000;stroke-width:0.27000001;stroke-miterlimit:4;stroke-opacity:1;stroke-dasharray:none;display:inline"
       id="path3145-7-4"
       sodipodi:cx="146.13402"
       sodipodi:cy="627.04065"
       sodipodi:rx="46.77739"
       sodipodi:ry="46.77739"
       d="m 192.91141,627.04065 a 46.77739,46.77739 0 1 1 -93.554782,0 46.77739,46.77739 0 1 1 93.554782,0 z"
       transform="matrix(-0.56640124,-0.00928116,-0.00928116,0.56640125,766.0391,-158.63964)" />
    <path
       sodipodi:type="arc"
       style="fill:#ff0000;stroke:#000000;stroke-width:0.27000001;stroke-miterlimit:4;stroke-opacity:1;stroke-dasharray:none;display:inline"
       id="path3145-9-2"
       sodipodi:cx="146.13402"
       sodipodi:cy="627.04065"
       sodipodi:rx="46.77739"
       sodipodi:ry="46.77739"
       d="m 192.91141,627.04065 a 46.77739,46.77739 0 1 1 -93.554782,0 46.77739,46.77739 0 1 1 93.554782,0 z"
       transform="matrix(-0.5630152,-0.06253314,-0.06253314,0.56301521,915.94259,-121.97573)" />
    <path
       sodipodi:type="arc"
       style="fill:#ff0000;stroke:#000000;stroke-width:0.27000001;stroke-miterlimit:4;stroke-opacity:1;stroke-dasharray:none;display:inline"
       id="path3145-699-2"
       sodipodi:cx="146.13402"
       sodipodi:cy="627.04065"
       sodipodi:rx="46.77739"
       sodipodi:ry="46.77739"
       d="m 192.91141,627.04065 a 46.77739,46.77739 0 1 1 -93.554782,0 46.77739,46.77739 0 1 1 93.554782,0 z"
       transform="matrix(-0.5630152,-0.06253314,-0.06253314,0.56301521,907.31301,-65.943459)" />
    <path
       sodipodi:type="arc"
       style="fill:#ff0000;stroke:#000000;stroke-width:0.27000001;stroke-miterlimit:4;stroke-opacity:1;stroke-dasharray:none;display:inline"
       id="path3145-98-6"
       sodipodi:cx="146.13402"
       sodipodi:cy="627.04065"
       sodipodi:rx="46.77739"
       sodipodi:ry="46.77739"
       d="m 192.91141,627.04065 a 46.77739,46.77739 0 1 1 -93.554782,0 46.77739,46.77739 0 1 1 93.554782,0 z"
       transform="matrix(-0.5630152,-0.06253314,-0.06253314,0.56301521,898.70393,-10.044059)" />
    <path
       sodipodi:type="arc"
       style="fill:#ff0000;stroke:#000000;stroke-width:0.27000001;stroke-miterlimit:4;stroke-opacity:1;stroke-dasharray:none;display:inline"
       id="path3145-84-9"
       sodipodi:cx="146.13402"
       sodipodi:cy="627.04065"
       sodipodi:rx="46.77739"
       sodipodi:ry="46.77739"
       d="m 192.91141,627.04065 a 46.77739,46.77739 0 1 1 -93.554782,0 46.77739,46.77739 0 1 1 93.554782,0 z"
       transform="matrix(-0.5630152,-0.06253314,-0.06253314,0.56301521,890.07433,45.988321)" />
    <path
       sodipodi:type="arc"
       style="fill:#ff0000;stroke:#000000;stroke-width:0.27000001;stroke-miterlimit:4;stroke-opacity:1;stroke-dasharray:none;display:inline"
       id="path3145-63-4"
       sodipodi:cx="146.13402"
       sodipodi:cy="627.04065"
       sodipodi:rx="46.77739"
       sodipodi:ry="46.77739"
       d="m 192.91141,627.04065 a 46.77739,46.77739 0 1 1 -93.554782,0 46.77739,46.77739 0 1 1 93.554782,0 z"
       transform="matrix(-0.5630152,-0.06253314,-0.06253314,0.56301521,881.46524,101.8877)" />
  </g>
</svg>
